# Blender v2.80 (sub 75) OBJ File: 'card.blend'
# www.blender.org
o cardBack_Cube.001
v -0.905605 -1.970539 1.000000
v -0.931143 0.991224 1.000000
v -0.905605 -1.970539 0.909212
v -0.931143 0.991224 0.909212
v 0.909394 -1.970539 1.000000
v 0.927353 0.991224 1.000000
v 0.909394 -1.970539 0.909212
v 0.927353 0.991224 0.909212
v -0.994375 0.918450 1.000000
v -0.994375 0.918450 0.909212
v 1.005625 0.918450 1.000000
v 1.005625 0.918450 0.909212
v -0.994376 -1.880213 0.909212
v 1.005624 -1.880213 1.000000
v 1.005624 -1.880213 0.909212
v -0.994376 -1.880213 1.000000
vn -0.7549 0.6559 0.0000
vn 0.6809 0.7324 0.0000
vn 0.0000 0.0000 1.0000
vn 0.0000 -1.0000 0.0000
vn 0.0000 1.0000 0.0000
vn 1.0000 -0.0000 0.0000
vn -1.0000 0.0000 0.0000
vn -0.7132 -0.7009 0.0000
vn 0.6844 -0.7291 0.0000
s off
f 2//1 10//1 9//1
f 8//2 11//2 12//2
f 6//3 9//3 11//3
f 7//4 1//4 3//4
f 4//5 6//5 8//5
f 11//3 16//3 14//3
f 12//6 14//6 15//6
f 9//7 13//7 16//7
f 16//8 3//8 1//8
f 15//9 5//9 7//9
f 5//3 16//3 1//3
f 2//1 4//1 10//1
f 8//2 6//2 11//2
f 6//3 2//3 9//3
f 7//4 5//4 1//4
f 4//5 2//5 6//5
f 11//3 9//3 16//3
f 12//6 11//6 14//6
f 9//7 10//7 13//7
f 16//8 13//8 3//8
f 15//9 14//9 5//9
f 5//3 14//3 16//3
o cardFront_Cube.002
v -0.905605 -1.970539 0.909212
v -0.931143 0.991224 0.909212
v 0.909394 -1.970539 0.909212
v 0.927353 0.991224 0.909212
v -0.994375 0.918450 0.909212
v 1.005624 0.918450 0.909212
v -0.994376 -1.880213 0.909212
v 1.005624 -1.880213 0.909212
vn 0.0000 0.0000 -1.0000
s off
f 21//10 20//10 22//10
f 21//10 24//10 23//10
f 23//10 19//10 17//10
f 21//10 18//10 20//10
f 21//10 22//10 24//10
f 23//10 24//10 19//10
